# xmcd
#
# Track frame offsets: 
#        150
#        17145
#        31273
#        47885
#        67286
#        82650
#        98682
#        117248
#        132779
#        148707
#        166996
#        184268
#        200598
#        215362
#        230617
#        246038
#        258486
#        275992
#        293217
#        306434
#        323168
#        338982
#
# Disc length: 4743 seconds
#
# Revision: 0
# Processed by: cddbd v1.5.2PL0 Copyright (c) Steve Scherf et al.
# Submitted via: ExactAudioCopy v1.1
#
DISCID=52128516
DTITLE=Various Artist - VTM 30 - 30 Jaar Muziek - CD 1 - 1989-1998
DYEAR=2019
DGENRE=Pop
TTITLE0=Clouseau - Daar Gaat Ze
TTITLE1=De Kreuners - Ik Wil Je
TTITLE2=Good Shape - Take My Love
TTITLE3=Def Dames Dope - Ain't Nothin' To It
TTITLE4=Confetti's - C Day
TTITLE5=Kabouter Plop - Kabouterdans
TTITLE6=Sam Gooris - Laat Het Gras Maar Groeien
TTITLE7=Isabelle A - Hé Lekker Beest
TTITLE8=The Dinky Toys - I Can't Keep My Hands Off You
TTITLE9=Soulsister - Through Before We Started
TTITLE10=B.B. Jerome and The Bang Gang - Shock Rock
TTITLE11=Get Ready! - Diep
TTITLE12=Andy - Boem Boem Boem!
TTITLE13=Touch Of Joy - Come On And Get Up
TTITLE14=Alana Dante - Take Me For A Ride
TTITLE15=De Pop-Koning - Albert Rap
TTITLE16=Danny Fabry and Silvy Melody - De Telefoon Huilt Mee
TTITLE17=Opium - Doe Me Goed
TTITLE18=Ingeborg - Door De Wind
TTITLE19=Jimmy Frey - Samen Leven
TTITLE20=Erik Van Neygen and Sanne - Veel Te Mooi
TTITLE21=The Radios - She Goes Nana
EXTD=
EXTT0=
EXTT1=
EXTT2=
EXTT3=
EXTT4=
EXTT5=
EXTT6=
EXTT7=
EXTT8=
EXTT9=
EXTT10=
EXTT11=
EXTT12=
EXTT13=
EXTT14=
EXTT15=
EXTT16=
EXTT17=
EXTT18=
EXTT19=
EXTT20=
EXTT21=
PLAYORDER=
